<mxfile host="app.diagrams.net" agent="Mozilla/5.0 (Windows NT 10.0; Win64; x64) AppleWebKit/537.36 (KHTML, like Gecko) Chrome/130.0.0.0 Safari/537.36" version="24.8.3">
  <diagram id="C5RBs43oDa-KdzZeNtuy" name="Page-1">
    <mxGraphModel dx="978" dy="558" grid="1" gridSize="10" guides="1" tooltips="1" connect="1" arrows="1" fold="1" page="1" pageScale="1" pageWidth="827" pageHeight="1169" math="0" shadow="0">
      <root>
        <mxCell id="WIyWlLk6GJQsqaUBKTNV-0" />
        <mxCell id="WIyWlLk6GJQsqaUBKTNV-1" parent="WIyWlLk6GJQsqaUBKTNV-0" />
        <mxCell id="4fp7syGJBLzp172K2ZbQ-8" value="" style="whiteSpace=wrap;html=1;" parent="WIyWlLk6GJQsqaUBKTNV-1" vertex="1">
          <mxGeometry x="229" y="140" width="440" height="343" as="geometry" />
        </mxCell>
        <mxCell id="oNv-fwpwx4Z7Ws2TRzvX-1" value="&lt;div&gt;Usuario&lt;/div&gt;&lt;div&gt;(Nuevo)&lt;/div&gt;" style="shape=umlActor;verticalLabelPosition=bottom;verticalAlign=top;html=1;outlineConnect=0;" parent="WIyWlLk6GJQsqaUBKTNV-1" vertex="1">
          <mxGeometry x="130" y="210" width="30" height="60" as="geometry" />
        </mxCell>
        <mxCell id="tyCtaZMKabNBIvSfg8F4-0" value="Ingresar Datos" style="ellipse;whiteSpace=wrap;html=1;" parent="WIyWlLk6GJQsqaUBKTNV-1" vertex="1">
          <mxGeometry x="269" y="210" width="101" height="60" as="geometry" />
        </mxCell>
        <mxCell id="tyCtaZMKabNBIvSfg8F4-4" value="Validar Datos" style="ellipse;whiteSpace=wrap;html=1;" parent="WIyWlLk6GJQsqaUBKTNV-1" vertex="1">
          <mxGeometry x="540" y="210" width="99" height="60" as="geometry" />
        </mxCell>
        <mxCell id="-WZQKZSNnh-fs0oWzx5F-1" value="&amp;lt;&amp;lt;include&amp;gt;&amp;gt;" style="endArrow=open;endSize=12;dashed=1;html=1;rounded=0;exitX=1;exitY=0;exitDx=0;exitDy=0;entryX=0.035;entryY=0.717;entryDx=0;entryDy=0;entryPerimeter=0;" parent="WIyWlLk6GJQsqaUBKTNV-1" source="tyCtaZMKabNBIvSfg8F4-10" target="tyCtaZMKabNBIvSfg8F4-4" edge="1">
          <mxGeometry width="160" relative="1" as="geometry">
            <mxPoint x="439" y="320" as="sourcePoint" />
            <mxPoint x="599" y="320" as="targetPoint" />
          </mxGeometry>
        </mxCell>
        <mxCell id="4fp7syGJBLzp172K2ZbQ-0" style="edgeStyle=orthogonalEdgeStyle;rounded=0;orthogonalLoop=1;jettySize=auto;html=1;exitX=0.5;exitY=1;exitDx=0;exitDy=0;" parent="WIyWlLk6GJQsqaUBKTNV-1" edge="1">
          <mxGeometry relative="1" as="geometry">
            <mxPoint x="429" y="450" as="sourcePoint" />
            <mxPoint x="429" y="450" as="targetPoint" />
          </mxGeometry>
        </mxCell>
        <mxCell id="4fp7syGJBLzp172K2ZbQ-1" value="" style="endArrow=none;html=1;rounded=0;entryX=0;entryY=0.5;entryDx=0;entryDy=0;" parent="WIyWlLk6GJQsqaUBKTNV-1" source="oNv-fwpwx4Z7Ws2TRzvX-1" target="tyCtaZMKabNBIvSfg8F4-0" edge="1">
          <mxGeometry width="50" height="50" relative="1" as="geometry">
            <mxPoint x="189" y="240" as="sourcePoint" />
            <mxPoint x="239" y="190" as="targetPoint" />
          </mxGeometry>
        </mxCell>
        <mxCell id="tyCtaZMKabNBIvSfg8F4-10" value="Modificar Datos de Perfil" style="ellipse;whiteSpace=wrap;html=1;" parent="WIyWlLk6GJQsqaUBKTNV-1" vertex="1">
          <mxGeometry x="398.5" y="342" width="101" height="70" as="geometry" />
        </mxCell>
        <mxCell id="4fp7syGJBLzp172K2ZbQ-3" value="&amp;lt;&amp;lt;include&amp;gt;&amp;gt;" style="endArrow=open;endSize=12;dashed=1;html=1;rounded=0;entryX=0;entryY=0.5;entryDx=0;entryDy=0;exitX=1;exitY=0.5;exitDx=0;exitDy=0;" parent="WIyWlLk6GJQsqaUBKTNV-1" source="tyCtaZMKabNBIvSfg8F4-0" target="tyCtaZMKabNBIvSfg8F4-4" edge="1">
          <mxGeometry width="160" relative="1" as="geometry">
            <mxPoint x="487" y="359" as="sourcePoint" />
            <mxPoint x="591" y="259" as="targetPoint" />
          </mxGeometry>
        </mxCell>
        <mxCell id="4fp7syGJBLzp172K2ZbQ-6" value="&amp;lt;&amp;lt;extend&amp;gt;&amp;gt;" style="endArrow=open;endSize=12;dashed=1;html=1;rounded=0;exitX=0;exitY=0;exitDx=0;exitDy=0;entryX=1;entryY=1;entryDx=0;entryDy=0;" parent="WIyWlLk6GJQsqaUBKTNV-1" source="tyCtaZMKabNBIvSfg8F4-10" target="tyCtaZMKabNBIvSfg8F4-0" edge="1">
          <mxGeometry width="160" relative="1" as="geometry">
            <mxPoint x="487" y="359" as="sourcePoint" />
            <mxPoint x="591" y="259" as="targetPoint" />
          </mxGeometry>
        </mxCell>
        <mxCell id="4fp7syGJBLzp172K2ZbQ-13" value="&lt;div&gt;Profesor&lt;/div&gt;" style="shape=umlActor;verticalLabelPosition=bottom;verticalAlign=top;html=1;outlineConnect=0;" parent="WIyWlLk6GJQsqaUBKTNV-1" vertex="1">
          <mxGeometry x="86" y="352" width="30" height="60" as="geometry" />
        </mxCell>
        <mxCell id="4fp7syGJBLzp172K2ZbQ-14" value="Jefe de Ã¡rea" style="shape=umlActor;verticalLabelPosition=bottom;verticalAlign=top;html=1;outlineConnect=0;" parent="WIyWlLk6GJQsqaUBKTNV-1" vertex="1">
          <mxGeometry x="170" y="352" width="30" height="60" as="geometry" />
        </mxCell>
        <mxCell id="4fp7syGJBLzp172K2ZbQ-15" value="" style="endArrow=classic;html=1;rounded=0;" parent="WIyWlLk6GJQsqaUBKTNV-1" edge="1">
          <mxGeometry width="50" height="50" relative="1" as="geometry">
            <mxPoint x="110" y="350" as="sourcePoint" />
            <mxPoint x="140" y="310" as="targetPoint" />
          </mxGeometry>
        </mxCell>
        <mxCell id="4fp7syGJBLzp172K2ZbQ-16" value="" style="endArrow=classic;html=1;rounded=0;" parent="WIyWlLk6GJQsqaUBKTNV-1" edge="1">
          <mxGeometry width="50" height="50" relative="1" as="geometry">
            <mxPoint x="180" y="350" as="sourcePoint" />
            <mxPoint x="150" y="310" as="targetPoint" />
          </mxGeometry>
        </mxCell>
      </root>
    </mxGraphModel>
  </diagram>
</mxfile>
